<svg id="图层_1" data-name="图层 1" xmlns="http://www.w3.org/2000/svg" viewBox="0 0 299.84 248.92"><defs><style>.cls-1{fill:#ff6d10;}.cls-2{fill:#315bf4;}</style></defs><title>logo</title><path class="cls-1" d="M251.89,0h46.48a1.46,1.46,0,0,1,1.46,1.46V47.95a1.46,1.46,0,0,1-1.46,1.46H250.43a0,0,0,0,1,0,0V1.46A1.46,1.46,0,0,1,251.89,0Z"/><path class="cls-2" d="M20.17,292.07,179.1,109.16a39.76,39.76,0,0,1,30-13.68h34.08L81.72,281.32a39.76,39.76,0,0,1-30,13.68H21.51A1.77,1.77,0,0,1,20.17,292.07Z" transform="translate(-19.74 -46.07)"/><path class="cls-2" d="M21.51,95.48h30.2a39.76,39.76,0,0,1,30,13.68l74.79,86.08-26.1,30L20.17,98.41A1.77,1.77,0,0,1,21.51,95.48Z" transform="translate(-19.74 -46.07)"/><path class="cls-2" d="M179.37,281.31l-48.81-56.18h52.2L243.45,295l-34.06,0A39.78,39.78,0,0,1,179.37,281.31Z" transform="translate(-19.74 -46.07)"/><path class="cls-2" d="M270.17,95.48l-38.86,0L231.39,295h37.09a1.77,1.77,0,0,0,1.77-1.77Z" transform="translate(-19.74 -46.07)"/></svg>